<svg xmlns="http://www.w3.org/2000/svg" viewBox="0 0 176.68 46.75"><path d="M11.12.65v37.06h14.57v8.58H0V.65h11.12ZM52.62 46.75c-12.94 0-23.47-9.69-23.47-23.41S39.68 0 52.62 0s23.34 9.62 23.34 23.34-10.4 23.41-23.34 23.41Zm0-10.14c7.28 0 12.03-5.27 12.03-13.27S59.9 10.08 52.62 10.08s-12.1 5.14-12.1 13.26 4.68 13.27 12.1 13.27ZM124.76 15.08h-12.29c-1.69-3.05-4.81-4.68-8.97-4.68-7.15 0-11.9 5.07-11.9 13 0 8.45 4.81 13.4 12.81 13.4 5.53 0 9.36-2.93 11.06-8.06h-14.11v-8.19h24.19v10.34c-2.34 7.87-9.95 15.74-21.98 15.74-13.65 0-23.28-9.56-23.28-23.21S89.84.13 103.5.13c10.93 0 18.86 5.59 21.26 14.95ZM153.34 46.75c-12.94 0-23.47-9.69-23.47-23.41S140.4 0 153.34 0s23.34 9.62 23.34 23.34-10.4 23.41-23.34 23.41Zm0-10.14c7.28 0 12.03-5.27 12.03-13.27s-4.75-13.26-12.03-13.26-12.1 5.14-12.1 13.26 4.68 13.27 12.1 13.27Z"/></svg>